<?xml version="1.0" standalone="no"?>
<!DOCTYPE svg PUBLIC "-//W3C//DTD SVG 20010904//EN"
 "http://www.w3.org/TR/2001/REC-SVG-20010904/DTD/svg10.dtd">
<svg version="1.0" xmlns="http://www.w3.org/2000/svg"
 width="100pt" height="100pt" viewBox="0 0 1024.000000 1024.000000"
 preserveAspectRatio="xMidYMid meet">

<g transform="translate(0.000000,1024.000000) scale(0.100000,-0.100000)"
fill="#000000" stroke="none">
<path d="M4890 8713 c-289 -23 -654 -107 -931 -216 -676 -266 -1214 -700
-1610 -1301 -502 -760 -638 -1718 -374 -2635 164 -571 532 -1130 1010 -1535
217 -185 374 -286 676 -437 653 -326 1398 -434 2059 -299 722 148 1305 463
1792 969 207 215 323 368 479 631 198 336 329 739 394 1210 28 200 30 495 6
713 -65 582 -233 1023 -582 1522 -110 158 -216 280 -380 440 -531 517 -1181
830 -1926 925 -144 19 -456 25 -613 13z m401 -556 c54 -29 109 -113 109 -167
0 -45 -42 -135 -69 -150 -20 -10 -21 -18 -21 -234 0 -185 3 -228 16 -255 62
-124 -114 -226 -186 -109 -24 39 -26 87 -5 114 12 15 14 61 15 235 l0 217 -29
12 c-85 35 -125 153 -82 245 47 102 156 142 252 92z m849 -37 c82 -42 121
-102 127 -200 4 -57 1 -72 -24 -120 -111 -216 -432 -135 -433 110 0 175 177
288 330 210z m-1947 -71 c55 -30 78 -91 53 -140 -13 -25 -16 -66 -16 -191 l0
-158 228 0 229 0 23 25 c35 38 108 36 152 -4 29 -26 33 -35 33 -81 0 -46 -4
-55 -33 -81 -25 -23 -42 -29 -77 -29 -37 0 -49 5 -78 35 l-34 35 -222 0 -221
0 0 -235 0 -235 108 -1 c59 -1 256 -1 437 0 182 1 364 -2 406 -7 140 -17 231
-75 290 -184 31 -58 34 -70 34 -148 0 -123 -21 -161 -196 -360 -79 -90 -281
-324 -448 -519 -167 -196 -347 -405 -400 -466 -53 -60 -170 -198 -261 -305
-90 -107 -194 -229 -230 -270 -74 -84 -218 -256 -333 -400 l-76 -95 1542 -3
c1513 -2 1543 -2 1607 18 117 35 231 146 297 288 44 95 63 184 63 302 l0 95
72 45 c39 25 75 46 79 48 15 6 32 -168 26 -279 -6 -142 -23 -206 -88 -337
-103 -205 -285 -354 -489 -398 -42 -9 -130 -14 -251 -14 l-187 0 -4 -447 c-3
-351 -1 -453 9 -473 28 -54 6 -128 -47 -155 -84 -43 -162 19 -145 117 4 24 9
249 12 501 l3 457 -775 0 -775 0 0 -335 0 -335 -80 0 -80 0 -2 333 -3 332
-813 5 -814 5 69 80 c38 44 123 145 188 225 65 80 223 267 350 415 273 319
375 440 842 999 l352 421 -812 5 -812 5 -3 113 -3 112 1104 0 1104 0 64 33
c165 84 186 258 39 338 -21 12 -215 14 -1124 17 l-1098 2 -39 -35 c-45 -40
-73 -49 -136 -42 -52 6 -88 29 -121 78 -34 49 -28 141 12 194 50 65 145 85
219 45 36 -19 56 -20 592 -20 l555 0 0 454 c0 324 -3 457 -11 462 -7 4 -9 24
-6 52 9 79 85 125 150 91z m2672 -278 c48 -22 107 -83 125 -128 7 -20 11 -59
8 -97 -4 -75 -38 -135 -94 -168 l-34 -20 2 -547 3 -546 225 0 225 0 3 168 2
168 -34 33 c-41 38 -56 72 -56 127 0 117 118 201 229 164 132 -43 163 -209 56
-291 l-33 -25 -1 -122 c0 -67 2 -146 5 -174 l6 -53 234 0 234 0 0 -105 0 -105
-972 -2 -973 -3 -62 -29 c-117 -54 -193 -169 -193 -291 l0 -55 340 0 340 0 0
-115 0 -115 -260 0 c-236 0 -292 -6 -244 -24 9 -3 136 -6 282 -6 147 0 293 -4
326 -10 170 -28 310 -158 346 -321 20 -88 9 -212 -24 -284 -35 -79 -112 -156
-190 -192 l-61 -28 -1278 -3 c-768 -1 -1277 1 -1275 7 10 29 166 220 183 225
11 3 528 6 1148 6 1223 0 1166 -2 1225 53 93 86 56 239 -70 292 -31 12 -87 15
-311 15 -295 0 -340 6 -439 56 -108 55 -219 199 -252 329 -20 76 -20 214 -1
289 45 173 176 319 338 378 l57 21 0 638 0 639 85 0 85 0 0 -630 0 -630 288 2
287 3 1 485 c0 267 -1 514 -4 550 -3 61 -5 66 -35 81 -18 8 -46 37 -64 62 -63
94 -53 198 26 277 69 69 165 89 246 51z m-3201 -114 c46 -26 86 -93 86 -145 0
-118 -119 -200 -223 -154 -41 18 -87 66 -87 91 0 7 -33 11 -95 11 -84 0 -95
-2 -105 -20 -16 -31 -68 -53 -108 -47 -50 9 -80 32 -91 73 -29 104 96 187 177
119 27 -23 38 -25 121 -25 89 0 91 1 105 28 43 83 141 114 220 69z m-939
-1392 l0 -110 -187 -3 -188 -2 0 115 0 115 188 -2 187 -3 0 -110z m4930 -429
c38 -16 75 -68 75 -104 0 -31 -25 -77 -52 -96 -13 -9 -43 -16 -69 -16 -41 0
-51 4 -78 35 -41 47 -43 100 -4 145 42 50 73 59 128 36z m-3888 -37 c77 -29
127 -124 104 -199 -32 -107 -136 -157 -239 -115 -32 14 -125 16 -714 15 -373
0 -689 2 -703 6 -24 6 -25 10 -25 74 l0 68 48 5 c26 2 178 2 337 0 160 -3 444
-2 633 2 292 6 342 9 342 22 0 34 35 85 74 108 44 27 96 32 143 14z m3063
-180 c118 -56 235 -174 303 -306 26 -50 47 -96 47 -102 0 -9 -141 -111 -154
-111 -3 0 -24 36 -46 80 -68 130 -179 223 -320 268 l-55 17 0 100 c-1 55 0
103 2 106 7 17 145 -15 223 -52z m694 -223 c77 -32 112 -155 64 -226 -28 -43
-80 -70 -131 -70 -47 0 -87 20 -122 62 -24 29 -27 38 -23 93 2 42 11 70 26 92
41 57 117 78 186 49z m456 -8 c56 -39 75 -73 75 -136 0 -44 -5 -65 -24 -91
-65 -90 -212 -78 -260 22 -27 56 -27 93 2 147 41 77 138 104 207 58z m-5340
-160 c25 -13 55 -39 68 -58 l23 -35 102 -6 c56 -4 184 -7 285 -8 l183 -1 -61
-75 -61 -75 -233 0 c-200 0 -235 -2 -247 -16 -23 -28 -71 -46 -121 -46 -122 0
-204 132 -149 240 48 94 125 123 211 80z m2665 -12 c40 -17 65 -60 65 -112 0
-28 -8 -44 -34 -70 -46 -46 -100 -47 -149 -4 l-34 30 -292 2 -292 3 48 63 48
62 257 0 c172 0 259 4 263 11 18 28 71 35 120 15z m2381 -500 c39 -39 45 -86
19 -136 -19 -37 -45 -51 -97 -52 -106 -1 -149 121 -68 195 45 41 101 38 146
-7z m-4602 -18 c-4 -7 -34 -46 -66 -85 l-59 -73 -305 0 -304 0 0 85 0 85 371
0 c293 0 369 -3 363 -12z m4580 -410 c38 -17 59 -55 58 -104 -2 -74 -44 -114
-118 -114 -51 0 -104 53 -104 104 0 93 84 151 164 114z m-2361 -489 c26 -28
28 -36 22 -78 -4 -25 -10 -195 -14 -377 l-6 -332 -72 0 c-40 0 -74 1 -75 1 -1
1 -5 151 -9 332 -4 182 -10 351 -14 377 -7 46 -5 50 29 84 33 33 41 36 74 31
24 -4 47 -17 65 -38z m-1632 -212 c19 -12 45 -43 58 -69 21 -44 22 -52 11 -96
-29 -123 -164 -171 -255 -91 -21 19 -37 44 -41 65 l-6 34 -99 0 c-80 0 -101
-3 -106 -15 -3 -9 -18 -22 -34 -30 -100 -52 -196 45 -144 145 17 33 61 60 97
60 25 0 68 -25 81 -47 6 -9 37 -13 112 -13 95 0 105 2 115 21 32 59 147 79
211 36z m408 8 c97 -50 119 -173 46 -251 l-35 -37 0 -107 c0 -83 3 -110 15
-120 20 -16 19 -89 -1 -118 -18 -26 -65 -52 -93 -52 -79 0 -128 97 -86 170 10
17 14 57 14 130 0 103 0 105 -29 134 -72 71 -55 193 34 247 37 23 96 25 135 4z
m2697 -6 c19 -11 39 -29 44 -40 9 -17 22 -19 100 -19 54 0 90 4 90 10 0 17 63
50 94 50 19 0 39 -11 62 -34 29 -29 34 -41 34 -80 0 -36 -6 -52 -24 -71 -46
-46 -130 -45 -160 0 -15 23 -23 25 -91 25 l-74 0 -20 -45 c-25 -56 -70 -85
-131 -85 -59 0 -110 28 -137 76 -26 45 -29 88 -9 135 15 35 59 82 86 92 36 13
104 6 136 -14z m-986 -14 c74 -38 79 -154 9 -191 -75 -39 -164 7 -164 85 0 44
27 88 66 108 32 17 54 16 89 -2z m-1214 -674 c120 -55 121 -230 1 -290 -35
-17 -56 -22 -81 -17 -41 8 -92 41 -120 79 -30 40 -28 120 4 171 24 40 85 76
130 76 14 0 43 -9 66 -19z"/>
<path d="M5999 7960 c-34 -34 -36 -58 -8 -94 25 -32 77 -36 102 -8 22 25 22
85 0 104 -35 30 -64 29 -94 -2z"/>
<path d="M6760 7632 c-74 -24 -62 -132 15 -132 59 0 91 54 58 98 -21 28 -50
42 -73 34z"/>
<path d="M2645 1808 c-11 -6 -23 -16 -27 -22 -4 -6 -8 -106 -8 -223 0 -208 0
-212 22 -227 28 -20 48 -20 74 -2 17 13 20 31 24 140 l5 126 59 -75 c33 -42
68 -81 79 -87 23 -12 48 9 117 100 l48 63 4 -122 c3 -113 5 -122 27 -140 29
-24 43 -24 71 -1 21 17 21 23 20 225 0 113 -3 213 -6 221 -8 20 -55 35 -80 26
-21 -8 -95 -97 -149 -177 -15 -24 -30 -43 -34 -43 -3 0 -34 38 -68 83 -97 129
-136 159 -178 135z"/>
<path d="M3687 1809 c-23 -13 -217 -402 -217 -434 0 -13 9 -30 21 -38 31 -23
70 -7 102 41 l28 42 109 0 110 0 20 -40 c27 -52 60 -69 93 -47 13 9 27 25 30
36 6 25 -174 408 -205 434 -23 19 -64 22 -91 6z m68 -205 c14 -31 25 -60 25
-65 0 -5 -25 -9 -55 -9 -30 0 -55 4 -55 9 0 12 50 121 56 121 2 0 15 -25 29
-56z"/>
<path d="M5086 1804 c-14 -13 -16 -49 -16 -233 0 -198 2 -219 18 -234 42 -38
102 -7 102 52 0 30 7 44 38 74 l38 37 21 -22 c11 -13 39 -51 62 -85 43 -65 69
-81 116 -69 44 11 43 49 -3 109 -22 28 -58 79 -81 111 l-41 60 81 82 c71 73
79 85 69 103 -8 17 -21 21 -58 21 -47 0 -48 -1 -144 -101 l-98 -102 0 86 c0
74 -3 90 -20 107 -24 24 -63 26 -84 4z"/>
<path d="M4302 1798 c-15 -15 -17 -420 -2 -449 8 -14 21 -19 50 -19 44 0 60
18 60 69 l0 31 69 0 c66 0 69 -1 81 -29 21 -51 52 -73 101 -69 37 2 45 7 47
26 2 13 -9 39 -27 63 l-30 41 33 33 c66 66 69 171 7 246 -50 60 -80 69 -238
69 -95 0 -143 -4 -151 -12z m299 -127 c25 -30 24 -72 -2 -105 -19 -24 -26 -26
-105 -26 l-84 0 0 81 0 81 86 -3 c76 -4 88 -7 105 -28z"/>
<path d="M5847 1792 c-15 -16 -17 -47 -17 -224 0 -186 2 -206 18 -221 16 -14
44 -17 188 -17 183 0 194 3 194 51 0 40 -17 48 -115 50 -50 1 -107 4 -127 7
-35 4 -38 7 -38 37 l0 33 91 4 c96 4 119 16 119 59 0 38 -27 49 -121 49 l-89
0 0 39 c0 37 2 39 38 45 20 3 81 6 135 6 96 0 98 0 108 26 7 20 6 32 -6 50
-15 24 -18 24 -189 24 -155 0 -175 -2 -189 -18z"/>
<path d="M6557 1792 c-15 -16 -17 -46 -17 -221 0 -120 4 -210 10 -222 10 -18
23 -19 190 -19 180 0 180 0 196 25 20 30 10 63 -23 76 -13 5 -76 9 -139 9
l-114 0 0 40 0 40 88 0 c97 0 132 14 132 54 0 39 -18 46 -122 46 l-98 0 0 45
0 44 136 3 c153 3 168 10 148 65 l-9 28 -181 3 c-165 2 -182 1 -197 -16z"/>
<path d="M7227 1792 c-45 -50 -4 -92 89 -92 l62 0 4 -167 c3 -93 8 -176 12
-186 12 -25 52 -32 81 -13 l25 16 0 175 0 175 70 0 c57 0 74 4 90 20 24 24 25
38 4 68 -15 21 -20 22 -218 22 -184 0 -204 -2 -219 -18z"/>
</g>
</svg>
